<?xml version="1.0" standalone="no"?>
<!DOCTYPE svg PUBLIC "-//W3C//DTD SVG 20010904//EN"
 "http://www.w3.org/TR/2001/REC-SVG-20010904/DTD/svg10.dtd">
<svg version="1.0" xmlns="http://www.w3.org/2000/svg"
 width="512.000000pt" height="512.000000pt" viewBox="0 0 512.000000 512.000000"
 preserveAspectRatio="xMidYMid meet">

<g transform="translate(0.000000,512.000000) scale(0.100000,-0.100000)"
fill="#000000" stroke="none">
<path d="M1585 5087 c-88 -47 -165 -129 -214 -227 -22 -45 -41 -91 -41 -101 0
-39 -21 -28 -59 31 -39 60 -71 163 -71 229 0 30 -38 71 -66 71 -28 0 -63 -24
-74 -50 -27 -65 31 -269 102 -359 l19 -25 -91 -32 c-143 -51 -241 -115 -346
-225 -104 -111 -197 -287 -218 -415 l-7 -41 -72 -5 c-42 -3 -92 -13 -119 -26
-66 -29 -143 -104 -175 -171 -23 -47 -27 -69 -27 -141 -1 -71 4 -94 26 -141
53 -115 160 -189 285 -197 l72 -5 11 -56 c47 -239 186 -445 388 -575 40 -26
86 -52 102 -58 17 -5 30 -14 30 -18 0 -14 -169 -33 -232 -26 -77 9 -156 39
-203 76 -71 56 -116 34 -191 -92 -65 -111 -94 -238 -76 -332 9 -46 8 -52 -24
-103 -43 -65 -74 -137 -74 -166 1 -27 17 -50 48 -66 43 -23 78 2 119 82 19 39
51 93 70 121 30 44 34 55 27 86 -4 19 -8 71 -9 115 0 67 4 90 28 141 l29 62
61 -28 c129 -58 261 -65 452 -24 66 14 172 36 235 50 221 47 388 41 501 -16
42 -22 116 -91 160 -150 19 -26 41 -40 81 -53 119 -37 239 -142 297 -258 49
-98 65 -191 58 -338 -10 -191 -1 -177 -111 -178 l-93 0 -51 81 c-28 44 -74
129 -102 188 -61 131 -61 131 -215 98 -395 -83 -503 -85 -845 -10 -156 35
-191 37 -212 13 -8 -10 -38 -65 -66 -123 -28 -58 -71 -137 -96 -176 l-46 -71
-97 1 -98 1 -12 55 c-6 30 -12 71 -12 91 -2 78 -68 113 -126 67 -27 -21 -28
-23 -22 -102 4 -45 14 -107 22 -139 l16 -58 -31 -39 c-174 -219 -38 -534 240
-557 l68 -6 22 -94 c58 -249 234 -470 466 -583 133 -66 216 -84 384 -83 128 0
155 3 233 26 165 51 289 127 401 249 110 118 190 273 217 420 l12 65 69 6 c81
7 158 39 209 88 l37 34 38 -34 c58 -50 133 -81 214 -88 62 -5 70 -8 70 -26 0
-74 74 -266 141 -364 78 -114 209 -229 334 -290 509 -253 1117 41 1240 598
l16 76 63 5 c130 11 239 86 293 203 23 49 28 74 28 135 0 88 -14 131 -61 200
-32 47 -34 54 -34 137 0 104 -19 237 -50 350 -30 112 -117 284 -151 300 -38
18 -84 0 -100 -38 -11 -28 -8 -38 34 -127 25 -53 55 -128 67 -167 21 -69 50
-235 50 -287 l0 -26 -72 3 -71 4 -18 68 c-52 206 -182 395 -354 513 -62 43
-177 96 -260 121 -97 29 -283 36 -390 16 -271 -51 -504 -227 -627 -472 -27
-54 -78 -205 -78 -233 0 -14 -12 -17 -70 -19 l-70 -1 0 58 c0 73 23 197 54
288 143 421 550 699 991 679 225 -10 416 -84 599 -231 76 -61 112 -70 146 -36
34 34 27 83 -17 124 -87 80 -232 172 -335 212 -27 11 -48 21 -48 24 1 3 39 30
86 60 195 125 339 339 384 571 l11 56 72 5 c212 14 361 221 303 423 -20 67
-37 96 -84 147 l-34 36 21 89 c43 187 37 361 -18 534 -40 124 -93 212 -175
294 -109 108 -245 165 -398 165 -64 0 -72 3 -141 48 -44 28 -115 63 -173 82
-97 34 -103 34 -259 34 -168 -1 -279 -17 -425 -64 -89 -29 -259 -112 -294
-144 -24 -23 -27 -32 -23 -69 4 -40 2 -45 -45 -89 -44 -41 -53 -45 -73 -36
-57 26 -103 -20 -175 -175 -75 -161 -111 -380 -94 -575 9 -99 9 -103 -13 -124
l-22 -21 -38 33 c-56 49 -136 82 -213 88 l-67 5 -22 81 c-28 106 -87 224 -154
311 -129 169 -354 303 -554 330 -29 4 -53 8 -53 9 0 16 44 122 63 152 31 50
104 117 156 143 65 34 80 83 36 126 -32 33 -58 31 -130 -8z m24 -602 c224 -76
388 -249 463 -485 22 -73 23 -85 23 -425 l0 -350 -26 -77 c-42 -122 -93 -204
-188 -299 -71 -71 -102 -94 -181 -133 -125 -61 -212 -79 -355 -73 -81 3 -130
11 -188 30 -217 71 -390 243 -465 464 l-27 78 0 365 c0 356 1 367 23 435 66
198 195 347 377 435 119 58 178 70 330 66 112 -2 142 -7 214 -31z m2441 -316
c75 -96 284 -296 353 -339 l57 -35 -3 -290 c-3 -283 -3 -292 -29 -368 -54
-161 -179 -318 -319 -400 -139 -81 -346 -118 -502 -87 -238 46 -454 226 -538
449 -43 114 -50 177 -47 432 l3 241 90 23 c123 32 207 65 360 140 144 71 308
167 424 250 42 30 81 54 86 54 6 0 35 -32 65 -70z m-3550 -569 l0 -190 -37 0
c-113 1 -208 112 -188 219 17 93 97 159 193 161 l32 0 0 -190z m1851 178 c80
-27 129 -96 129 -179 -1 -103 -72 -178 -176 -187 l-54 -4 0 184 c0 102 3 188
7 191 10 11 57 8 94 -5z m517 -180 l2 -188 -40 0 c-111 0 -190 80 -190 192 0
105 88 191 190 185 l35 -2 3 -187z m1892 158 c124 -82 112 -258 -21 -326 -21
-11 -56 -20 -79 -20 l-40 0 0 191 0 192 52 -6 c29 -4 67 -17 88 -31z m-2157
-412 c55 -50 119 -77 201 -83 l69 -6 14 -70 c49 -243 219 -476 426 -585 47
-25 59 -40 32 -40 -28 0 -221 -105 -296 -162 -260 -196 -421 -484 -458 -821
-6 -53 -11 -128 -11 -166 0 -77 -11 -94 -42 -63 -20 20 -20 21 -3 114 23 124
23 309 0 408 -50 215 -178 376 -372 471 -62 30 -101 59 -160 117 -44 44 -104
91 -137 108 l-58 31 58 39 c181 120 331 345 366 552 l12 72 58 0 c75 0 155 31
210 80 24 22 45 39 47 40 2 0 22 -16 44 -36z m1322 -1328 c33 -9 98 -35 145
-58 118 -59 248 -188 309 -305 75 -147 81 -190 81 -558 0 -369 -6 -412 -82
-558 -61 -119 -191 -247 -308 -304 -123 -60 -194 -77 -330 -77 -117 0 -162 8
-260 46 -230 90 -394 286 -444 530 -12 60 -16 141 -16 363 0 307 8 382 55 496
85 211 291 385 505 428 30 6 64 13 75 15 38 9 210 -3 270 -18z m-2732 -401
c186 -26 330 -16 590 39 l107 24 51 -99 c28 -54 75 -135 106 -180 l55 -83 -5
-280 c-4 -315 -9 -344 -77 -481 -92 -187 -241 -312 -450 -376 -60 -19 -97 -24
-190 -23 -137 0 -210 17 -330 76 -117 57 -248 186 -309 305 -73 143 -81 195
-81 514 l0 278 55 82 c30 45 76 123 102 173 l46 92 111 -23 c61 -12 160 -30
219 -38z m-695 -502 c-3 -213 0 -206 -86 -182 -96 27 -158 133 -132 228 21 80
97 140 178 141 l42 0 -2 -187z m1880 166 c115 -56 135 -221 36 -308 -35 -31
-100 -54 -137 -49 -22 3 -22 7 -25 191 l-2 187 42 0 c23 0 61 -10 86 -21z
m492 -164 l0 -185 -24 -6 c-61 -15 -164 46 -192 113 -29 68 -9 170 42 214 36
32 79 48 127 49 l47 0 0 -185z m1863 171 c44 -18 94 -77 107 -127 14 -50 0
-116 -31 -161 -27 -37 -90 -69 -142 -71 l-42 -2 -3 188 -2 187 40 0 c22 0 55
-6 73 -14z"/>
<path d="M972 3697 c-19 -20 -22 -35 -22 -116 0 -84 2 -94 25 -116 13 -14 36
-25 50 -25 14 0 37 11 50 25 23 22 25 32 25 113 0 75 -3 93 -21 116 -27 34
-77 36 -107 3z"/>
<path d="M1680 3700 c-17 -17 -20 -33 -20 -119 0 -96 1 -100 26 -120 34 -26
64 -27 92 -1 29 27 35 56 30 146 -3 65 -7 79 -27 95 -30 25 -76 24 -101 -1z"/>
<path d="M1120 3180 c-43 -43 -13 -126 64 -179 125 -86 312 -76 414 22 64 61
76 107 41 151 -33 42 -76 36 -125 -18 -77 -85 -195 -86 -271 -1 -46 51 -88 60
-123 25z"/>
<path d="M3339 3701 c-20 -16 -24 -30 -27 -95 -5 -89 1 -119 28 -146 26 -26
60 -25 94 1 25 20 26 24 26 120 0 86 -3 102 -20 119 -25 25 -71 26 -101 1z"/>
<path d="M4041 3694 c-18 -23 -21 -41 -21 -116 0 -81 2 -91 25 -113 13 -14 36
-25 50 -25 14 0 37 11 50 25 23 22 25 32 25 113 0 107 -18 142 -75 142 -24 0
-39 -7 -54 -26z"/>
<path d="M3481 3174 c-35 -44 -23 -90 41 -151 102 -98 289 -108 414 -22 77 53
107 136 64 179 -35 35 -77 26 -123 -25 -76 -85 -194 -84 -271 1 -49 54 -92 60
-125 18z"/>
<path d="M3530 1820 c-30 -30 -27 -83 6 -109 25 -19 40 -21 200 -21 185 0 214
6 233 47 16 34 14 47 -10 77 l-20 26 -195 0 c-181 0 -195 -1 -214 -20z"/>
<path d="M3610 1573 c-51 -19 -66 -81 -31 -124 19 -23 24 -24 161 -24 l142 0
24 28 c32 37 30 62 -5 98 l-29 29 -124 -1 c-68 0 -130 -3 -138 -6z"/>
<path d="M3353 1358 c-34 -16 -46 -59 -41 -149 3 -70 6 -83 27 -100 30 -25 76
-24 101 1 17 17 20 33 20 119 0 96 -1 100 -26 120 -29 23 -48 25 -81 9z"/>
<path d="M4045 1345 c-23 -22 -25 -32 -25 -113 0 -75 3 -93 21 -116 27 -34 77
-36 107 -3 19 20 22 35 22 116 0 84 -2 94 -25 116 -13 14 -36 25 -50 25 -14 0
-37 -11 -50 -25z"/>
<path d="M3660 1060 c-164 -25 -285 -108 -340 -232 -47 -107 -47 -305 0 -352
18 -19 32 -21 123 -21 119 0 184 18 253 71 l45 34 32 -24 c76 -57 169 -86 276
-86 128 0 146 23 146 189 -1 96 -5 126 -23 173 -27 67 -96 148 -159 184 -92
55 -240 81 -353 64z m240 -178 c90 -39 135 -108 147 -222 l6 -63 -49 8 c-79
11 -116 31 -174 94 -30 33 -62 61 -70 62 -46 5 -62 -3 -96 -51 -39 -54 -107
-94 -181 -105 l-43 -7 0 55 c0 64 14 110 47 155 30 40 61 61 127 84 68 25 220
20 286 -10z"/>
<path d="M993 1360 c-34 -14 -43 -42 -43 -137 0 -105 16 -133 75 -133 56 0 75
35 75 136 0 98 -4 110 -41 129 -32 17 -35 17 -66 5z"/>
<path d="M1683 1346 c-27 -23 -28 -27 -28 -121 0 -90 2 -98 24 -116 30 -24 72
-24 102 0 22 18 24 26 24 116 0 94 -1 97 -28 121 -35 30 -59 30 -94 0z"/>
<path d="M1315 1059 c-132 -14 -220 -54 -295 -136 -72 -79 -94 -142 -94 -278
-1 -133 5 -160 44 -180 37 -19 157 -20 226 -1 55 14 147 61 165 82 9 10 21 6
60 -21 77 -53 139 -70 256 -70 93 0 104 2 125 23 20 20 23 34 26 131 6 160
-24 248 -115 336 -88 86 -242 130 -398 114z m164 -160 c119 -25 190 -108 199
-231 l5 -71 -44 7 c-71 11 -143 49 -174 92 -40 54 -54 64 -91 64 -26 0 -40
-10 -80 -56 -52 -62 -100 -88 -178 -100 l-49 -7 6 62 c14 131 68 198 192 237
50 16 148 17 214 3z"/>
</g>
</svg>
